{
	"asset":{
		"generator":"Khronos glTF Blender I/O v4.2.60",
		"version":"2.0"
	},
	"scene":0,
	"scenes":[
		{
			"name":"Scene",
			"nodes":[
				0,
				1
			]
		}
	],
	"nodes":[
		{
			"mesh":0,
			"name":"Text",
			"rotation":[
				0.25596657395362854,
				-0.6523349285125732,
				0.6682038307189941,
				0.24988774955272675
			],
			"scale":[
				3.847836494445801,
				3.84783673286438,
				3.8478360176086426
			],
			"translation":[
				-18.13360023498535,
				-2.570753812789917,
				26.5172176361084
			]
		},
		{
			"mesh":1,
			"name":"Text.001",
			"rotation":[
				0,
				0.8470934629440308,
				-0.5314440131187439,
				9.458601084588736e-07
			],
			"scale":[
				3.707258939743042,
				3.707258462905884,
				3.707258701324463
			],
			"translation":[
				-19.37825584411621,
				1.332634449005127,
				29.08745002746582
			]
		}
	],
	"materials":[
		{
			"doubleSided":true,
			"name":"Material.001",
			"pbrMetallicRoughness":{
				"baseColorFactor":[
					0.015435004606842995,
					0,
					1,
					1
				],
				"metallicFactor":0.4175824224948883,
				"roughnessFactor":0.8516483306884766
			}
		}
	],
	"meshes":[
		{
			"name":"Text",
			"primitives":[
				{
					"attributes":{
						"POSITION":0,
						"NORMAL":1,
						"TEXCOORD_0":2
					},
					"indices":3,
					"material":0
				}
			]
		},
		{
			"name":"Text.001",
			"primitives":[
				{
					"attributes":{
						"POSITION":4,
						"NORMAL":5,
						"TEXCOORD_0":6
					},
					"indices":7,
					"material":0
				}
			]
		}
	],
	"accessors":[
		{
			"bufferView":0,
			"componentType":5126,
			"count":3518,
			"max":[
				1.5490598678588867,
				0.08499939739704132,
				0.42314547300338745
			],
			"min":[
				-0.8959402441978455,
				-0.08500060439109802,
				-0.4888545870780945
			],
			"type":"VEC3"
		},
		{
			"bufferView":1,
			"componentType":5126,
			"count":3518,
			"type":"VEC3"
		},
		{
			"bufferView":2,
			"componentType":5126,
			"count":3518,
			"type":"VEC2"
		},
		{
			"bufferView":3,
			"componentType":5123,
			"count":6900,
			"type":"SCALAR"
		},
		{
			"bufferView":4,
			"componentType":5126,
			"count":2328,
			"max":[
				0.8766118288040161,
				0.09999996423721313,
				0.3016616404056549
			],
			"min":[
				-1.0713883638381958,
				-0.10000002384185791,
				-0.3983384072780609
			],
			"type":"VEC3"
		},
		{
			"bufferView":5,
			"componentType":5126,
			"count":2328,
			"type":"VEC3"
		},
		{
			"bufferView":6,
			"componentType":5126,
			"count":2328,
			"type":"VEC2"
		},
		{
			"bufferView":7,
			"componentType":5123,
			"count":4500,
			"type":"SCALAR"
		}
	],
	"bufferViews":[
		{
			"buffer":0,
			"byteLength":42216,
			"byteOffset":0,
			"target":34962
		},
		{
			"buffer":0,
			"byteLength":42216,
			"byteOffset":42216,
			"target":34962
		},
		{
			"buffer":0,
			"byteLength":28144,
			"byteOffset":84432,
			"target":34962
		},
		{
			"buffer":0,
			"byteLength":13800,
			"byteOffset":112576,
			"target":34963
		},
		{
			"buffer":0,
			"byteLength":27936,
			"byteOffset":126376,
			"target":34962
		},
		{
			"buffer":0,
			"byteLength":27936,
			"byteOffset":154312,
			"target":34962
		},
		{
			"buffer":0,
			"byteLength":18624,
			"byteOffset":182248,
			"target":34962
		},
		{
			"buffer":0,
			"byteLength":9000,
			"byteOffset":200872,
			"target":34963
		}
	],
	"buffers":[
		{
			"byteLength":209872,
			"uri":"untitled.bin"
		}
	]
}
